<svg xmlns="http://www.w3.org/2000/svg" xmlns:xlink="http://www.w3.org/1999/xlink" viewBox="0 0 55.04 29.75"><defs><style>.cls-1{fill:url(#linear-gradient);}.cls-2{fill:url(#linear-gradient-2);}.cls-3{fill:url(#linear-gradient-3);}.cls-4{fill:url(#linear-gradient-4);}</style><linearGradient id="linear-gradient" x1="52.77" y1="44.44" x2="28.18" y2="19.85" gradientTransform="translate(1.04 -9.79) scale(0.96)" gradientUnits="userSpaceOnUse"><stop offset="0" stop-color="#3a506b"/><stop offset="1" stop-color="#0b132b"/></linearGradient><linearGradient id="linear-gradient-2" x1="4.04" y1="8.59" x2="27.2" y2="31.75" xlink:href="#linear-gradient"/><linearGradient id="linear-gradient-3" x1="36.33" y1="10.05" x2="4.72" y2="41.66" gradientTransform="translate(1.04 -9.79) scale(0.96)" gradientUnits="userSpaceOnUse"><stop offset="0" stop-color="#5bc0be"/><stop offset="1" stop-color="#6fffe9"/></linearGradient><linearGradient id="linear-gradient-4" x1="18" y1="41.92" x2="48.89" y2="11.03" xlink:href="#linear-gradient-3"/></defs><title>AuqkwaV1Icon</title><g id="Layer_2" data-name="Layer 2"><g id="Layer_1-2" data-name="Layer 1"><path class="cls-1" d="M55,29.75H45.91L29.27,13.12a2.61,2.61,0,0,0-3.73,0c3.4-3.4,5.8-7.09,8.18-4.71Z"/><path class="cls-2" d="M0,0H9.13L25.77,16.64a2.62,2.62,0,0,0,3.73,0c-3.4,3.4-5.8,7.09-8.18,4.71Z"/><path class="cls-3" d="M33.72,8.43c-2.38-2.38-4.78,1.31-8.18,4.71L9.39,29.75H.25L21.77,7.84a8,8,0,0,1,11.3-.06Z"/><path class="cls-4" d="M21.32,21.32C23.7,23.7,26.1,20,29.5,16.61L45.65,0h9.13L33.27,21.92A8,8,0,0,1,22,22Z"/></g></g></svg>