<svg id="Layer_1" data-name="Layer 1" xmlns="http://www.w3.org/2000/svg" viewBox="0 0 675.39 503.39"><defs><style>.cls-1{fill:#fff;}</style></defs><title>WhiteIcon</title><path class="cls-1" d="M235.21,481.41,477,694.83h0a110.8,110.8,0,0,1-156.4,9.74L161.88,564.49Z" transform="translate(-161.88 -229.33)"/><path class="cls-1" d="M319.76,384.56,673.37,696.68h0A106.54,106.54,0,0,1,523,706.05L249.25,464.44Z" transform="translate(-161.88 -229.33)"/><path class="cls-1" d="M805.93,483.33,837.27,511,687.47,680.71,606,608.79,710.32,490.6C732.37,465,780.67,462.13,805.93,483.33Z" transform="translate(-161.88 -229.33)"/><path class="cls-1" d="M539.63,248l149.64,132.1a68.86,68.86,0,0,1,6.06,97.2L591,595.51l-87.21-77,74-83.8-83.81-74-74,83.81-86.07-76L434.56,254.51A74.45,74.45,0,0,1,539.63,248Z" transform="translate(-161.88 -229.33)"/></svg>